<svg width="360" height="268" viewBox="0 0 360 268" fill="none" xmlns="http://www.w3.org/2000/svg">
    <path d="M331.656 65.0028C290.796 8.14529 204.483 -14.9186 119.597 9.92175C74.7197 23.0541 31.4501 49.3667 10.0067 100.316C-28.3256 191.394 52.1579 220.482 104.785 229.753C130.233 234.236 154.201 241.766 176.102 252.018C215.506 270.463 285.252 286.807 337.845 209.976C375.965 154.289 358.872 102.875 331.656 65.0028Z" fill="url(#paint0_linear_1_28)"/>
    <path d="M94.7671 76.2517C94.6528 75.3481 94.4216 74.4632 94.0794 73.6191C94.0358 73.4594 93.9593 73.3106 93.855 73.1822C93.7507 73.0537 93.6208 72.9484 93.4735 72.8729C93.2767 72.8217 93.0703 72.8194 92.8724 72.8661L89.7861 73.3384C89.5277 73.3502 89.2804 73.4463 89.0819 73.612C88.6799 74.0348 89.0757 74.7155 89.0634 75.2987C89.0496 75.9546 88.4669 76.4869 87.835 76.663C87.1899 76.7933 86.5246 76.7851 85.883 76.6388L81.5674 75.9682C82.8384 75.5624 83.9697 74.8074 84.8322 73.7895C85.4001 73.1167 85.7023 71.8606 84.8815 71.542C84.6376 71.4751 84.3833 71.4547 84.1319 71.4818C82.1766 71.497 80.638 69.8645 78.8075 69.1769C77.636 68.7653 76.3643 68.7347 75.1742 69.0894C73.9842 69.4442 72.9369 70.1661 72.1819 71.152L74.4809 71.2629C74.6972 71.251 74.9117 71.3082 75.0933 71.4262C75.5971 71.8402 74.9708 72.6353 75.0417 73.2835C75.1339 74.1257 76.2521 74.3055 77.0951 74.3906C77.938 74.4758 79.0073 75.1606 78.6018 75.9045C74.3653 77.3638 70.0541 73.052 65.6048 73.5827C64.4787 73.7171 63.4153 74.1594 62.3159 74.4376C55.5998 76.1369 48.6564 71.603 41.7955 72.5632C40.2703 72.8233 38.7712 73.2186 37.3161 73.7446C36.3823 74.0512 35.4083 74.3826 34.7298 75.0936C34.0513 75.8047 33.7931 77.0207 34.4359 77.7642C32.6643 77.9101 30.8808 77.7406 29.1684 77.2636C29.6315 77.521 30.0167 77.8983 30.2837 78.3559C30.5506 78.8135 30.6895 79.3346 30.6856 79.8643C27.9195 80.3154 25.2266 81.1365 22.6794 82.3056C23.1548 83.0961 23.71 83.8358 24.3365 84.513L20.8346 86.7628C22.0177 87.0609 22.6294 88.6741 21.9414 89.6817C23.1681 89.136 23.9284 87.7242 25.2402 87.4379C26.0996 87.2504 26.974 87.602 27.7893 87.9322C28.6046 88.2625 29.5006 88.5827 30.3446 88.3349C31.1886 88.087 31.8111 86.9927 31.2748 86.2954C34.8822 85.2429 38.6104 84.6604 42.3669 84.5625C42.6567 84.5261 42.9506 84.5819 43.2069 84.7219C43.6959 85.0611 43.5673 85.7939 43.5409 86.3885C43.5146 86.9831 43.978 87.7645 44.5094 87.4965C43.8842 88.0387 44.4187 89.0593 45.0185 89.6294C45.6183 90.1995 46.3413 90.9861 45.9741 91.7277C45.8782 91.9213 45.7157 92.0761 45.6234 92.2715C45.3512 92.8479 45.7834 93.52 46.2932 93.9029C46.803 94.2857 47.4274 94.5532 47.7815 95.0834C48.1356 95.6135 47.9748 96.5414 47.3416 96.6155L45.5418 94.3303C44.9269 94.9679 44.5053 95.7668 44.326 96.6343C46.2345 98.1945 46.5216 101.37 44.9238 103.247C44.1073 104.207 42.9461 104.789 41.9327 105.538C40.9193 106.286 39.9815 107.351 39.984 108.611C39.9884 110.787 39.8106 112.809 40.6262 114.827C42.13 118.548 43.8663 122.17 45.8246 125.673C46.3389 126.593 47.0036 127.601 48.0454 127.759C46.7287 124.554 45.5435 121.299 44.4896 117.993C45.176 117.996 45.9692 118.051 46.3716 118.607C46.7048 119.067 46.6332 119.693 46.7368 120.252C46.8685 120.794 47.088 121.31 47.3868 121.78L53.6742 132.98C54.1954 133.908 54.7933 134.905 55.7894 135.281C56.4263 135.521 57.1632 135.476 57.7494 135.822C58.2089 136.094 58.5183 136.575 58.9868 136.831C60.3112 137.553 62.1531 136.167 63.3908 137.03C63.7447 137.277 63.9699 137.669 64.296 137.951C65.4392 138.941 67.3145 138.279 68.6341 139.017C69.4846 139.493 69.9254 140.445 70.3791 141.308C71.5154 143.468 73.354 145.585 75.7893 145.757C76.5543 145.811 77.3356 145.666 78.0834 145.837C78.8311 146.007 79.5672 146.659 79.4472 147.417C79.2414 148.715 79.883 150.137 79.7107 151.44C79.3968 153.815 76.0293 154.858 75.74 157.235C75.6767 157.756 75.7758 158.293 75.6519 158.802C75.5 159.427 75.031 159.935 74.8644 160.556C74.5486 161.732 75.3913 162.903 76.317 163.694C77.2428 164.485 78.347 165.168 78.8531 166.275C79.388 167.446 79.1253 168.811 79.2993 170.087C79.6791 172.871 82.084 174.935 84.559 176.266C85.3131 176.672 86.1228 177.064 86.6109 177.768C87.2479 178.686 87.1845 179.896 87.3972 180.993C87.9182 183.68 90.18 185.894 90.2442 188.63C90.2899 190.575 89.2089 192.339 88.5631 194.174C87.9577 195.932 87.7386 197.8 87.9208 199.651C88.103 201.501 88.6822 203.291 89.6189 204.897C90.1019 205.713 90.6797 206.482 91.0214 207.366C91.6313 208.944 91.4334 210.738 91.9957 212.333C92.739 214.443 94.7817 216.185 94.5862 218.413C95.5135 220.339 97.5613 221.285 99.6204 221.859L103.311 222.886C104.017 223.083 104.756 223.281 105.475 223.138C106.195 222.996 106.882 222.399 106.863 221.665C105.053 221.257 103.186 220.823 101.694 219.72C100.202 218.618 99.1799 216.654 99.7459 214.887C100.008 214.068 100.567 213.122 100.036 212.445C99.732 212.057 99.1762 211.956 98.8333 211.602C98.2986 211.051 98.4823 210.124 98.8667 209.459C99.2512 208.794 99.8068 208.2 99.9619 207.447C100.04 207.026 99.9879 206.592 99.812 206.201C99.6361 205.811 99.3451 205.484 98.978 205.263C99.6622 205.005 100.285 204.606 100.805 204.091C101.285 203.543 101.507 202.697 101.129 202.073C102.251 202.216 103.576 202.285 104.312 201.427C104.901 200.742 104.86 199.717 104.628 198.844C104.395 197.971 104.003 197.123 103.99 196.22C106.579 196.343 109.173 196.255 111.748 195.957C111.375 194.703 110.529 193.644 109.389 193.004C110.555 192.806 111.617 191.41 111.986 190.287C112.354 189.163 112.26 187.939 112.032 186.779C111.945 186.48 111.933 186.164 111.997 185.86C112.129 185.441 112.54 185.186 112.92 184.968L118.707 181.644C119.052 181.471 119.365 181.24 119.632 180.961C120.239 180.249 120.149 179.174 119.839 178.291C119.528 177.409 119.031 176.579 118.911 175.652C118.554 172.877 121.523 170.887 122.526 168.275C122.919 167.25 122.999 166.136 123.075 165.041C123.157 163.865 123.163 162.499 122.26 161.741C121.394 161.014 120.042 161.176 119.136 160.5C118.305 159.881 118.019 158.677 117.111 158.177C116.287 157.722 115.254 158.011 114.338 157.798C112.724 157.421 111.709 155.562 110.061 155.389C109.131 155.292 108.079 155.747 107.317 155.205C106.645 154.728 106.619 153.769 106.491 152.955C106.267 151.691 105.661 150.525 104.754 149.615C103.847 148.706 102.683 148.096 101.419 147.868C100.461 147.714 99.4173 147.772 98.6018 147.246C97.776 146.712 97.3973 145.713 96.7487 144.975C95.7032 143.784 94.0567 143.361 92.5142 142.998L86.2403 141.524C85.1265 141.262 83.6909 141.123 83.0932 142.098C82.9163 142.47 82.7911 142.864 82.721 143.269C82.497 144.003 82.0463 144.646 81.4337 145.107C80.821 145.568 80.0779 145.824 79.3112 145.836C78.7854 144.939 77.9335 144.28 76.9334 143.996C76.2972 143.819 75.6162 143.799 75.0095 143.538C74.679 143.377 74.385 143.15 74.1453 142.871C73.9056 142.592 73.7254 142.267 73.6156 141.916C73.5059 141.565 73.4689 141.196 73.5069 140.83C73.5449 140.464 73.6572 140.11 73.8368 139.789C74.1986 139.145 74.3383 138.4 74.2344 137.669C74.1305 136.937 73.7888 136.261 73.262 135.743C72.195 134.785 70.6517 134.553 69.221 134.649C68.8463 133.832 69.4728 132.909 70.1479 132.315C70.8231 131.721 71.6429 131.137 71.7899 130.25C72.0212 128.854 70.2404 127.794 68.8883 128.21C67.5362 128.626 66.6733 129.94 66.1028 131.234C65.7755 131.977 65.4972 132.759 64.9809 133.385C64.4646 134.012 63.6332 134.46 62.8468 134.259C61.7335 133.975 61.3035 132.652 61.0571 131.529C60.7265 130.024 60.394 128.497 60.4632 126.957C60.5325 125.416 61.0517 123.835 62.1875 122.792C64.0382 121.093 66.8773 121.26 69.375 121.531C68.7849 120.866 68.9307 119.745 69.5621 119.12C69.8954 118.824 70.2959 118.613 70.7289 118.507C71.1618 118.4 71.6142 118.401 72.0468 118.509C72.7994 118.666 73.4774 119.071 73.9717 119.66C74.6814 120.525 74.8833 121.694 75.4198 122.676C75.9563 123.658 77.1626 124.496 78.15 123.969C79.0028 123.514 79.1382 122.331 78.9259 121.388C78.7137 120.445 78.2629 119.528 78.3397 118.564C78.4865 116.726 80.3925 115.619 82.0745 114.862C83.7564 114.104 85.6824 113.086 85.9489 111.261C85.958 110.903 86.0254 110.55 86.1485 110.214C86.335 109.918 86.5942 109.674 86.9016 109.506C91.8104 106.262 96.801 102.978 102.412 101.206C102.703 101.113 102.738 101.216 103.035 101.144C103.452 100.903 103.176 100.237 102.777 99.9692C102.377 99.7011 101.844 99.4954 101.743 99.0253C101.668 98.6798 101.872 98.3405 101.925 97.991C102.055 97.1321 101.027 96.3392 100.229 96.6825C99.7785 96.0856 100.67 95.3921 101.391 95.1936C103.557 94.5977 105.779 94.2346 108.022 94.1105C108.281 94.0693 108.546 94.1144 108.776 94.2388C109.153 94.4997 109.105 95.0981 108.838 95.4704C108.571 95.8428 108.156 96.0766 107.823 96.3917C107.46 96.7457 107.201 97.1927 107.074 97.684C106.947 98.1753 106.958 98.6919 107.105 99.1775C108.275 99.773 109.548 100.386 110.844 100.176C112.141 99.9664 113.292 98.5097 112.682 97.3462C112.115 96.2628 110.41 96.0184 110.117 94.831C109.774 93.4408 111.742 92.2043 111.299 90.8427C111.104 90.2463 110.51 89.8952 110.054 89.4646C109.515 88.9367 109.149 88.2582 109.003 87.5182C108.857 86.7782 108.938 86.0114 109.236 85.3183C108.493 85.449 107.729 85.3997 107.009 85.1744C106.289 84.9491 105.634 84.5545 105.098 84.0236C104.108 83.0248 103.319 81.4493 101.914 81.494C100.624 81.535 99.5133 83.0395 98.3074 82.5805C98.0108 82.4676 97.698 82.2378 97.4105 82.3725C97.3163 82.4336 97.2373 82.5154 97.1793 82.6116C97.1214 82.7078 97.086 82.8159 97.076 82.9278C96.7696 84.3929 97.2967 86.0621 96.4982 87.3281C95.6293 88.7058 93.6194 88.8968 92.566 90.1391C91.9942 90.8135 91.7727 91.7222 91.2471 92.4331C90.7215 93.1441 89.6059 93.5962 88.9751 92.9766C89.2851 92.3393 89.3698 91.6157 89.2153 90.924C89.0608 90.2324 88.6762 89.6136 88.1244 89.1688C87.5388 88.7867 86.9076 88.4797 86.2455 88.2549C85.5056 87.9417 84.8018 87.5494 84.1463 87.0849C83.8179 86.8869 83.5511 86.6014 83.3757 86.2604C83.2369 85.8334 83.2556 85.3708 83.4284 84.9565C83.7482 84.0394 84.3125 83.2272 85.0602 82.6074C85.808 81.9877 86.7108 81.5839 87.6712 81.4398C88.5111 81.3255 89.4885 81.3658 90.0443 80.7259C90.3384 80.3873 90.4927 79.8754 90.9196 79.7379C91.1926 79.683 91.4761 79.7179 91.7277 79.8374L94.8624 80.9408C95.2121 81.0987 95.5971 81.1623 95.979 81.1255C96.1684 81.0999 96.3412 81.0038 96.4626 80.8562C96.584 80.7086 96.6452 80.5206 96.6337 80.3298C96.5336 79.8092 95.7325 79.5594 95.8054 79.0344C95.8462 78.8642 95.9377 78.7104 96.0678 78.5934C97.1991 77.3893 98.5826 76.4502 100.119 75.8434C101.656 75.2366 103.308 74.977 104.956 75.0833C105.352 75.7331 104.726 76.5026 104.206 77.0573C103.685 77.612 103.267 78.6032 103.896 79.0302C104.154 79.1618 104.441 79.2265 104.731 79.2181C105.503 79.3226 106.253 79.5501 106.952 79.8919C108.036 80.3634 109.098 80.8791 110.14 81.4393C110.048 80.7525 109.96 80.0289 110.22 79.3868C110.481 78.7446 111.22 78.2409 111.867 78.491C112.489 78.732 112.809 79.5567 113.472 79.6322C114.358 79.733 114.707 78.4254 114.337 77.6149C113.967 76.8045 113.235 76.1258 113.174 75.2371C113.133 74.6375 113.361 73.894 112.882 73.5309C112.712 73.4219 112.518 73.3541 112.317 73.3328L100.359 71.1322C99.6489 71.0015 98.6229 71.1017 98.5914 71.823C98.5738 72.2257 98.9335 72.624 98.7742 72.9942C98.6042 73.3894 98.0456 73.3532 97.6388 73.493C97.0076 73.7098 96.6908 74.4594 96.7515 75.124C96.8625 75.7845 97.1182 76.4122 97.5005 76.9621C96.7226 76.6368 95.5449 76.577 94.7671 76.2517Z" fill="#0A1034"/>
    <path d="M85.2255 66.1006C84.4714 65.8511 83.6589 65.8394 82.898 66.0673C82.1371 66.2952 81.4646 66.7516 80.9718 67.3745C80.7749 67.6338 80.6096 67.9912 80.7744 68.2719C81.0108 68.6743 81.6129 68.5154 82.0569 68.3714C82.7094 68.1383 83.4197 68.1213 84.0826 68.3231C84.4995 68.4662 84.8724 68.7192 85.2911 68.8569C85.495 68.9421 85.7181 68.9703 85.9367 68.9384C86.1553 68.9064 86.3611 68.8156 86.532 68.6756C86.8194 68.3825 86.8374 67.9269 86.8379 67.5164C86.8579 67.3791 86.8469 67.239 86.8058 67.1065C86.7647 66.9739 86.6945 66.8522 86.6004 66.7502C86.4328 66.6532 86.2445 66.5975 86.051 66.5877C85.6178 66.5075 85.2261 66.2787 84.9436 65.9407" fill="#0A1034"/>
    <path d="M89.5374 64.9001C89.3687 64.8909 89.2004 64.9253 89.0488 64.9999C88.8972 65.0746 88.7673 65.187 88.6717 65.3263C88.576 65.4656 88.5179 65.6273 88.5028 65.7956C88.4876 65.9639 88.5161 66.1333 88.5853 66.2874C89.1036 66.4288 89.6451 66.4641 90.1773 66.3912C90.4427 66.35 90.6901 66.2312 90.8881 66.0496C91.0861 65.8681 91.2259 65.632 91.29 65.3711C90.6634 65.4851 90.0167 65.3616 89.4762 65.0247" fill="#0A1034"/>
    <path d="M104.004 62.8951C102.594 63.195 101.224 63.6604 99.9222 64.2818C100.536 64.5176 101.057 64.9443 101.41 65.4989C101.763 66.0535 101.928 66.7068 101.881 67.3624C101.826 67.6141 101.832 67.8753 101.9 68.124C102.05 68.4875 102.484 68.6239 102.866 68.7172C103.552 68.926 104.269 69.0175 104.985 68.9877C105.344 68.9689 105.692 68.8611 105.998 68.6739C106.305 68.4867 106.56 68.2261 106.74 67.9157C106.844 67.621 106.965 67.333 107.105 67.0533C108.02 65.659 110.74 67.3449 111.723 65.9973C112.069 65.5226 112.037 64.808 112.489 64.4318C112.722 64.2679 112.993 64.1647 113.276 64.1313C115.253 63.7386 117.25 63.4542 119.257 63.2795C120.209 63.1967 121.449 62.8551 121.456 61.9002C117.873 61.1965 114.158 61.6963 110.888 63.322C109.71 63.912 108.152 65.1533 107.017 64.371C106.592 64.0781 106.613 63.2894 106.028 62.96C105.43 62.6233 104.639 62.7602 104.004 62.8951Z" fill="#0A1034"/>
    <path d="M115.723 65.0864L117.405 65.4096C117.095 65.3959 116.786 65.4484 116.498 65.5635C116.211 65.6787 115.951 65.8539 115.736 66.0774C115.521 66.3009 115.357 66.5677 115.253 66.8599C115.15 67.152 115.11 67.4629 115.136 67.7717C116.711 68.2979 118.429 67.7858 120.088 67.8558C121.747 67.9257 123.678 69.1109 123.394 70.7473C123.309 71.2421 123.023 71.7365 123.172 72.2162C123.276 72.5524 123.572 72.7909 123.74 73.1005C124.088 73.7457 123.81 74.5618 123.369 75.1483C122.929 75.7348 122.337 76.2027 121.951 76.826C120.989 78.3762 121.536 80.3803 122.108 82.1121C122.274 82.7665 122.579 83.3771 123.004 83.9017C123.853 84.8037 125.235 84.8822 126.473 84.9002C127.375 84.9134 128.407 84.8689 128.977 84.1706C129.721 83.259 129.201 81.8367 129.691 80.7669C130.135 79.7952 131.269 79.3783 132.296 79.0827C134.177 78.5411 136.095 78.0806 137.873 77.2625C140.082 76.2466 142.146 74.6634 144.574 74.5326C145.255 74.4959 145.953 74.5763 146.609 74.3897C147.265 74.2031 147.888 73.6359 147.838 72.9557C147.796 72.3745 147.304 71.9477 146.92 71.5096C146.536 71.0714 146.234 70.3977 146.587 69.9341L152.95 68.7456C152.499 67.5164 152.148 65.8976 153.184 65.0975C153.558 64.8088 154.059 64.6934 154.377 64.3444C154.92 63.7496 154.647 62.7249 154.02 62.2191C153.394 61.7132 152.547 61.5958 151.745 61.5291C148.955 61.2974 146.149 61.4505 143.353 61.6037C137.889 61.9033 132.424 62.2028 126.96 62.5023C125.86 62.5626 124.59 62.4705 123.581 62.8458C122.726 63.1635 122.119 63.7467 121.142 63.9516C119.339 64.3299 117.354 64.0739 115.723 65.0864Z" fill="#0A1034"/>
    <path d="M145.855 78.3816C145.684 78.3544 145.509 78.3942 145.366 78.4926C145.271 78.5966 145.215 78.7298 145.206 78.8701C145.098 79.4893 145.227 80.1267 145.569 80.6546C145.742 80.9136 145.983 81.1213 146.264 81.2561C146.545 81.391 146.857 81.4481 147.168 81.4215C147.926 81.3249 148.484 80.6788 149.18 80.3635C150.253 79.878 154.811 79.1211 151.658 77.4179C150.571 76.8309 149.869 77.3491 149.013 77.7356C148.039 78.2341 146.947 78.4574 145.855 78.3816Z" fill="#0A1034"/>
    <path d="M173.469 64.1249C173.101 64.2753 172.793 64.5433 172.593 64.8872C172.501 65.0618 172.479 65.2651 172.533 65.4551C172.587 65.645 172.712 65.807 172.881 65.9076C173.019 65.9575 173.165 65.9806 173.311 65.9757L174.808 66.0205C175.443 66.0395 176.238 66.1749 176.409 66.7877C176.536 67.2427 176.252 67.8274 176.594 68.1525C176.741 68.2664 176.918 68.3354 177.103 68.3511C177.596 68.4778 178.111 68.4944 178.612 68.3998C179.701 68.1077 179.128 67.443 179.471 66.8511C179.996 65.9455 179.905 66.4937 180.83 65.9747C181.513 65.5914 182.396 64.8961 181.826 63.9191C180.834 62.2203 174.931 63.3951 173.469 64.1249Z" fill="#0A1034"/>
    <path d="M203.012 63.2708L202.143 63.3868C200.183 63.6483 198.212 63.9123 196.324 64.5009C197.141 64.8239 197.999 65.0343 198.873 65.1262C199.354 65.1497 199.832 65.2177 200.3 65.3291C201.134 65.5773 201.974 66.2183 202.78 65.8899C203.279 65.6863 203.442 65.1663 203.856 64.8907C204.141 64.7004 205.225 64.3923 205.346 64.2003C206.325 62.6474 203.765 63.1703 203.012 63.2708Z" fill="#0A1034"/>
    <path d="M206.829 67.2211C205.668 67.8703 204.591 68.6591 203.621 69.5701C203.213 69.954 202.796 70.4314 202.833 70.9907C202.882 71.734 203.674 72.1651 204.36 72.4556L207.138 73.6319C207.475 73.1568 207.167 72.501 206.819 72.0342C206.47 71.5673 206.056 71.0271 206.21 70.4653C206.386 69.8242 207.168 69.6057 207.823 69.4952C208.891 69.3153 211.772 69.3297 211.426 67.6085C211.018 65.5803 207.901 66.6218 206.829 67.2211Z" fill="#0A1034"/>
    <path d="M206.27 181.997C206.006 182.763 205.981 183.665 206.438 184.333C206.952 185.084 207.979 185.363 208.868 185.173C209.753 184.937 210.542 184.43 211.124 183.722C211.656 183.13 212.094 182.458 212.422 181.732C212.879 180.601 213.202 179.42 213.384 178.213L214.246 173.684C214.439 172.671 214.432 169.568 212.571 170.579C212.063 170.855 210.886 173.036 210.353 173.655C209.393 174.769 209.266 175.851 208.761 177.201C208.128 178.893 206.855 180.303 206.27 181.997Z" fill="#0A1034"/>
    <path d="M304.54 205.176C303.932 204.938 303.341 204.657 302.772 204.334C302.203 205.901 301.9 207.552 301.876 209.219L306.042 206.861C306.669 206.507 307.379 206.014 307.366 205.294C307.371 205.205 307.353 205.116 307.312 205.037C307.272 204.958 307.211 204.891 307.135 204.843C307.043 204.806 306.942 204.794 306.843 204.809C306.226 204.861 305.662 205.164 305.08 205.376C304.497 205.587 303.815 205.699 303.281 205.385" fill="#0A1034"/>
    <path d="M326.517 206.575C326.06 206.7 325.613 206.86 325.181 207.055C324.225 207.541 323.575 208.465 322.714 209.106C321.891 209.719 320.9 210.056 319.927 210.383C319.641 210.636 319.772 211.145 320.083 211.368C320.417 211.558 320.8 211.644 321.183 211.615C322.194 211.637 323.259 211.647 324.144 211.159C324.643 210.835 325.11 210.465 325.538 210.052C326.573 209.189 327.816 208.619 329.047 208.068C329.495 207.899 329.909 207.651 330.27 207.337C331.043 206.575 331.097 205.4 329.982 205.141C329.082 204.931 327.375 206.298 326.517 206.575Z" fill="#0A1034"/>
    <path d="M336.227 200.233C336.277 199.708 336.207 199.18 336.023 198.686C335.839 198.193 335.545 197.748 335.164 197.385C335.152 198.434 335.121 199.551 334.531 200.418C334.11 201.036 333.451 201.454 332.991 202.042C332.531 202.631 332.326 203.564 332.866 204.08C333.212 204.343 333.632 204.488 334.066 204.493C335.141 204.62 336.385 204.69 337.139 203.914C337.551 203.49 337.751 202.862 338.253 202.55C338.44 202.472 338.607 202.352 338.742 202.201C338.949 201.871 338.62 201.437 338.249 201.318C337.878 201.199 337.47 201.255 337.097 201.143C336.725 201.03 336.383 200.611 336.574 200.272" fill="#0A1034"/>
    <path d="M318.969 161.782C318.405 161.919 317.821 161.953 317.245 161.883C316.288 161.707 315.543 160.986 314.77 160.395C312.933 158.996 310.7 158.216 308.392 158.166C306.292 158.126 304.173 158.695 302.111 158.298C302.246 159.048 302.887 159.61 303.571 159.944C304.255 160.278 305.01 160.446 305.698 160.773C306.799 161.303 307.672 162.211 308.158 163.332C308.379 163.849 308.518 164.412 308.854 164.863C309.539 165.785 310.839 165.988 311.985 165.913C313.481 165.814 315.042 165.384 316.433 165.941C317.497 166.367 318.259 167.299 319.147 168.023C320.036 168.747 321.287 169.285 322.308 168.762C321.248 168.419 320.326 167.746 319.675 166.842C319.025 165.937 318.681 164.849 318.693 163.735C319.693 163.827 322.576 163.792 322.42 162.091C322.289 160.65 319.828 161.626 318.969 161.782Z" fill="#0A1034"/>
    <path d="M305.879 173.505C306.057 172.531 307.028 171.67 306.726 170.727C306.516 170.075 305.76 169.753 305.075 169.737C304.391 169.721 303.718 169.925 303.033 169.944C302.587 169.92 302.141 169.927 301.696 169.963C300.337 170.186 299.499 171.611 298.218 172.118C297.439 172.426 296.564 172.367 295.754 172.58C293.915 173.063 292.752 174.801 291.466 176.202C289.389 178.455 286.684 180.033 283.7 180.731C282.654 180.973 281.53 181.128 280.699 181.807C279.599 182.706 279.328 184.248 279.083 185.648C278.406 189.514 277.373 193.309 275.995 196.984L280.361 197.541C281.191 197.647 282.051 197.751 282.851 197.505C283.432 197.286 283.983 196.993 284.489 196.633C286.434 195.425 288.61 194.64 290.877 194.327C292.021 194.17 293.22 194.141 294.293 194.566C295.366 194.991 296.286 195.955 296.376 197.105C296.84 196.961 297.335 196.946 297.807 197.06C298.279 197.175 298.711 197.416 299.057 197.757C299.741 198.454 300.188 199.348 300.337 200.313C300.452 200.91 300.567 201.626 301.121 201.876C301.574 202.081 302.092 201.861 302.587 201.821C304.266 201.687 305.659 203.644 307.309 203.307C309.078 202.945 309.513 200.295 311.239 199.764C312.23 199.46 313.621 199.83 314.096 198.908C314.514 198.095 313.679 197.157 313.766 196.247C313.872 195.126 315.194 194.65 316.213 194.172C319.727 192.523 321.394 187.794 319.691 184.306C318.682 182.24 316.697 180.613 316.331 178.343C316.049 176.596 316.737 174.559 315.624 173.184C315.057 172.485 314.098 172.099 313.761 171.264C313.549 170.739 313.634 170.143 313.52 169.588C313.406 169.033 312.922 168.453 312.374 168.597C310.783 169.014 310.275 173.928 309.424 175.122C308.129 176.937 305.471 175.741 305.879 173.505Z" fill="#0A1034"/>
    <path d="M276.477 163.638C275.934 163.486 275.34 163.336 274.82 163.554C274.299 163.771 273.994 164.536 274.413 164.916C277.683 164.788 280.973 164.662 284.216 165.106C287.952 165.617 291.649 166.885 295.401 166.512C293.258 165.88 291.079 165.374 288.876 164.998L285.203 164.296C284.217 164.09 283.222 163.936 282.22 163.835C280.124 163.662 278.538 164.216 276.477 163.638Z" fill="#0A1034"/>
    <path d="M279.751 152.248C279.48 152.226 279.144 152.206 279.003 152.44C278.869 152.663 279.023 152.957 278.951 153.207C278.852 153.549 278.404 153.636 278.052 153.59C277.699 153.543 277.318 153.432 277.006 153.602C276.847 153.71 276.728 153.867 276.667 154.048C276.605 154.23 276.603 154.427 276.663 154.609C276.791 154.971 276.997 155.301 277.268 155.573C277.73 156.155 278.256 156.683 278.837 157.147C279.96 157.976 281.483 158.376 282.191 159.581C282.291 159.814 282.445 160.021 282.639 160.184C282.979 160.399 283.422 160.235 283.788 160.068L285.071 159.482C285.302 159.399 285.508 159.258 285.67 159.074C285.963 158.676 285.783 158.111 285.537 157.683C285.291 157.255 284.977 156.811 285.029 156.32C285.124 155.445 286.249 155.11 286.712 154.361C287.179 153.605 286.875 152.632 286.929 151.746C286.992 150.71 287.643 149.362 286.595 148.588C285.705 147.93 284.854 148.538 284.215 149.264C282.867 150.796 282.229 152.455 279.751 152.248Z" fill="#0A1034"/>
    <path d="M287.537 136.766C287.975 137.604 288.888 138.105 289.365 138.921C289.883 139.806 289.824 140.95 290.385 141.807C290.961 142.688 292.121 143.155 292.444 144.156C292.796 145.249 291.996 146.577 292.634 147.532C292.753 147.688 292.903 147.818 293.075 147.913C293.247 148.008 293.436 148.066 293.632 148.084C293.827 148.102 294.024 148.079 294.21 148.017C294.396 147.955 294.568 147.855 294.713 147.723C294.982 147.43 295.126 147.044 295.114 146.646C295.102 146.249 294.936 145.872 294.65 145.595C294.272 145.251 293.73 145.102 293.415 144.7C293.25 144.468 293.141 144.201 293.095 143.921C292.923 143.112 292.95 142.273 293.175 141.476C293.259 141.274 293.281 141.052 293.236 140.837C293.094 140.424 292.536 140.395 292.143 140.204C291.253 139.769 291.274 138.512 291.43 137.533C291.326 138.185 289.005 137.076 288.762 136.707C288.279 135.974 288.542 134.559 288.446 133.749C287.404 134.251 287.002 135.741 287.537 136.766Z" fill="#0A1034"/>
    <path d="M264.15 149.666C263.721 149.186 263.076 148.684 262.502 148.974C262.063 149.194 261.943 149.801 262.115 150.26C262.324 150.707 262.646 151.091 263.049 151.375C264.246 152.362 265.535 153.253 266.58 154.401C268.449 156.455 269.439 159.226 271.471 161.118C271.88 161.557 272.421 161.849 273.012 161.951C273.604 162.007 274.269 161.628 274.337 161.037C274.393 160.55 274.054 160.114 273.722 159.754C272.932 158.895 272.068 158.104 271.323 157.207C270.978 156.862 270.762 156.411 270.709 155.926C270.706 155.443 271.146 154.937 271.614 155.057C271.045 154.911 270.623 153.963 269.787 153.785C269.089 153.636 268.92 154.068 268.089 153.712C266.504 153.032 265.26 150.908 264.15 149.666Z" fill="#0A1034"/>
    <path d="M301.396 102.961C300.941 102.826 300.494 102.667 300.057 102.483C298.88 102.13 297.322 102.995 297.479 104.214C297.584 105.023 298.337 105.569 298.753 106.272C299.371 107.313 299.206 108.634 298.882 109.801C298.802 110.162 298.651 110.504 298.436 110.805C298.137 111.123 297.779 111.381 297.382 111.564C295.792 112.455 294.391 113.646 293.254 115.07C293.131 115.202 293.045 115.364 293.005 115.54C292.949 115.952 293.363 116.251 293.596 116.595C294.116 117.357 293.74 118.383 293.792 119.304C293.784 119.434 293.809 119.564 293.866 119.682C293.922 119.799 294.008 119.901 294.115 119.976C294.428 120.135 294.799 119.865 294.968 119.557C295.531 118.537 295.107 116.899 296.164 116.407C296.364 116.314 296.606 116.275 296.739 116.1C296.951 115.821 296.747 115.409 296.854 115.076C297.015 114.576 297.698 114.554 298.223 114.576C299.127 114.614 300.03 114.493 300.892 114.22C301.23 114.14 301.538 113.962 301.776 113.709C302.092 113.315 302.064 112.754 302.001 112.253C301.684 109.755 300.893 107.34 299.669 105.139C300.597 105.258 301.607 105.361 302.408 104.877C302.856 104.606 303.394 103.796 303.171 103.245C302.82 102.373 302.184 103.107 301.396 102.961Z" fill="#0A1034"/>
    <path d="M182.422 116.701C182.533 117.297 182.642 117.924 182.447 118.498C182.251 119.071 181.637 119.551 181.057 119.375C180.607 119.238 180.348 118.786 180.028 118.441C178.251 116.522 174.241 117.633 173.144 115.26C172.696 114.291 173 113.13 172.695 112.108C172.502 111.517 172.118 111.007 171.604 110.657C171.09 110.308 170.474 110.139 169.854 110.178C169.288 110.26 168.737 110.424 168.219 110.666C164.748 112.056 161.104 112.967 157.387 113.375C156.681 113.418 155.982 113.545 155.306 113.754C153.78 114.307 152.737 115.722 151.995 117.166C151.253 118.609 150.705 120.172 149.71 121.455C148.665 122.803 147.2 123.747 145.833 124.768C145.306 125.107 144.868 125.567 144.554 126.109C144.257 126.717 144.274 127.425 144.297 128.101L144.576 136.314C144.612 137.37 144.657 138.465 145.13 139.41C145.721 140.591 146.887 141.364 147.696 142.407C148.522 143.478 148.952 144.802 148.914 146.155C148.897 146.699 148.843 147.342 149.266 147.683C149.524 147.85 149.825 147.937 150.132 147.932L161.242 148.842C163.196 149.002 165.362 149.264 166.638 150.753C167.24 151.456 167.724 152.467 168.647 152.542C169.042 152.574 169.427 152.412 169.823 152.381C170.821 152.302 171.698 153.059 172.252 153.894C173.09 155.166 173.47 156.685 173.33 158.202C173.239 159.154 172.944 160.08 172.881 161.034C172.639 164.665 175.717 167.82 175.776 171.459C175.811 173.599 174.795 175.599 173.805 177.496C175.404 179.918 174.094 183.144 174.731 185.975C175.335 188.661 177.575 190.764 178.133 193.46C178.388 194.695 178.403 196.214 179.491 196.849C179.969 197.082 180.498 197.188 181.029 197.157C184.228 197.195 187.391 196.475 190.258 195.056C191.604 194.388 192.999 193.391 193.234 191.907C193.423 190.71 192.817 189.372 193.434 188.33C194.162 187.101 196.027 187.198 197.098 186.254C198.835 184.722 197.48 181.799 198.184 179.592C198.817 177.608 200.995 176.554 202.075 174.774C202.5 174.008 202.805 173.181 202.979 172.323C203.474 170.272 203.782 168.18 203.899 166.073C203.928 164.793 204.022 163.516 204.182 162.245C205.346 155.013 212.496 150.17 214.817 143.222C215.039 142.559 215.143 141.675 214.553 141.299C214.203 141.132 213.806 141.091 213.429 141.182L208.307 141.828C207.671 141.908 206.997 141.983 206.412 141.718C205.828 141.454 205.41 140.715 205.719 140.154C206.589 138.578 204.8 136.587 204.005 134.972C201.864 130.625 199.315 126.49 196.391 122.625C196.204 122.426 196.087 122.171 196.057 121.9L197.511 121.948C197.02 120.188 196.211 118.261 194.5 117.617C193.536 117.254 192.469 117.38 191.44 117.436C188.495 117.597 185.337 117.152 182.422 116.701Z" fill="#0A1034"/>
    <path d="M191.443 77.025C192.214 77.8435 193.077 78.7114 194.193 78.854C196.162 79.106 197.579 77.0691 198.48 75.2998C198.514 75.7508 198.722 76.1711 199.06 76.4711C199.399 76.7712 199.841 76.9274 200.293 76.9064C200.779 76.8246 201.243 76.6432 201.656 76.3735C205.558 74.2407 209.93 73.1107 214.377 73.0849C214.335 72.748 214.418 72.4072 214.612 72.1283C214.806 71.8494 215.096 71.6521 215.427 71.5745C216.331 71.3953 217.145 72.1771 217.582 72.9892C218.018 73.8013 218.29 74.7426 218.983 75.3505C219.676 75.9583 221.018 75.9319 221.291 75.0516C221.554 74.2065 220.674 73.4858 219.942 72.9876C219.211 72.4893 218.44 71.5671 218.932 70.8319C222.669 70.0047 226.429 69.1744 230.253 69.01C230.904 69.0326 231.553 68.9209 232.159 68.6817C232.742 68.3955 233.205 67.746 233.048 67.1156C232.214 67.3118 231.34 67.255 230.538 66.9524C229.736 66.6499 229.042 66.1154 228.545 65.417C233.851 64.9792 239.494 64.606 244.196 67.1026C244.761 68.3139 241.885 69.3217 242.654 70.4142C242.9 70.7627 243.391 70.8035 243.817 70.8115C247.085 70.8721 250.371 70.9316 253.602 70.4383C254.783 70.258 255.975 70.0035 257.16 70.1497C259.135 70.3932 260.823 71.7105 262.766 72.14C263.556 72.3148 264.443 72.3207 265.109 71.8609C265.776 71.4011 266.062 70.3541 265.516 69.7564C267.345 67.964 270.38 68.4082 272.793 69.2663C275.205 70.1244 277.491 71.5083 280.044 71.6995C281.875 71.8367 283.732 71.3441 285.541 71.6572C286.678 71.854 287.737 72.3598 288.848 72.6705C290.95 73.2583 293.173 73.1342 295.355 73.1625C300.923 73.2375 306.43 74.3318 311.604 76.3912C312.277 76.6103 312.893 76.9747 313.41 77.4584C313.891 77.9739 314.137 78.775 313.813 79.4017L308.467 78.6206C308.971 79.6122 310.274 79.7812 311.332 80.1232C312.391 80.4653 313.488 81.6339 312.852 82.5463C311.705 82.1812 310.666 83.3276 310.087 84.3824C309.508 85.4372 308.802 86.7004 307.6 86.7647C306.524 86.8222 305.223 85.906 304.522 86.724C305.491 87.9464 306.32 89.273 306.995 90.6791C307.688 92.1227 308.182 93.9417 307.245 95.2405C307.098 95.4723 306.874 95.6456 306.613 95.7306C305.848 95.9243 305.351 94.9885 304.803 94.4214C304.112 93.7067 303.066 93.5043 302.13 93.1691C301.194 92.834 300.208 92.1746 300.135 91.183C300.089 90.5661 300.415 89.9926 300.655 89.4225C301.058 88.4614 301.235 87.4203 301.17 86.3801C301.118 85.5432 300.883 84.6726 300.282 84.0879C299.681 83.5032 298.643 83.3177 297.998 83.8532C297.697 84.1031 297.456 84.5028 297.065 84.5178C296.374 84.5442 295.844 83.3398 295.288 83.751C295.353 84.189 295.262 84.6361 295.031 85.0139C293.373 86.4564 290.825 85.8461 288.687 86.3557C287.67 86.6467 286.697 87.0718 285.792 87.6198C285.454 87.7645 285.166 88.0061 284.965 88.3143C284.698 88.833 284.992 89.4972 285.463 89.8421C285.961 90.1481 286.522 90.3394 287.104 90.4023C289.711 90.896 292.355 91.6602 294.413 93.3345C296.471 95.0088 297.821 97.7765 297.169 100.348L292.029 95.4365C292.224 97.4989 292.335 99.5669 292.361 101.641C292.395 102.046 292.339 102.453 292.198 102.834C291.832 103.643 290.839 103.916 289.968 104.094C289.726 104.14 289.497 104.237 289.295 104.378C289.093 104.519 288.923 104.701 288.796 104.913C288.669 105.124 288.589 105.36 288.56 105.605C288.531 105.849 288.554 106.097 288.627 106.333C288.937 107.34 289.708 108.126 290.414 108.909C291.12 109.692 291.814 110.582 291.907 111.633C291.999 112.683 291.207 113.867 290.155 113.794C289.358 113.738 288.766 113.024 288.426 112.301C288.086 111.578 287.884 110.772 287.373 110.158C285.826 108.298 282.352 109.094 280.967 107.111C280.613 107.512 280.369 107.996 280.255 108.518C280.142 109.04 280.164 109.582 280.319 110.093C280.963 109.69 281.846 110.065 282.33 110.651C282.814 111.237 283.043 111.989 283.423 112.648C283.936 113.536 284.753 114.324 284.825 115.348C284.806 115.735 284.812 116.123 284.844 116.509C284.971 117.129 285.496 117.575 285.859 118.093C286.705 119.299 286.663 120.957 286.118 122.325C285.573 123.694 284.594 124.838 283.623 125.947C281.929 127.883 280.2 129.809 278.191 131.417C277.618 131.876 277.007 132.327 276.65 132.969C276.293 133.611 276.274 134.511 276.823 134.999C276.43 135.019 275.726 135.212 275.334 135.232C275.196 133.657 275.166 132.075 275.244 130.496C273.695 129.752 272.027 131.744 272.227 133.451C272.427 135.157 273.661 136.527 274.54 138.004C275.183 139.083 275.661 140.342 275.446 141.58C275.231 142.819 274.126 143.961 272.875 143.851C270.883 143.678 270.051 140.819 268.079 140.492C267.905 140.451 267.722 140.469 267.56 140.544C267.267 140.704 267.216 141.096 267.2 141.429C267.119 143.066 267.049 144.768 267.688 146.277C268.623 148.484 271.038 150.338 270.531 152.681C267.802 151.413 266.384 148.353 265.74 145.414C265.096 142.475 264.988 139.389 263.834 136.611C262.957 137.734 261.114 136.805 260.313 135.627C259.554 134.509 259.086 133.216 258.349 132.083C257.612 130.951 256.484 129.936 255.134 129.874C253.719 129.809 252.491 130.78 251.412 131.698C250.524 132.452 249.613 133.236 249.094 134.28C248.339 135.797 248.537 137.587 248.5 139.282C248.461 141.114 248.073 143.047 246.824 144.389C245.575 145.73 243.27 146.197 241.892 144.988C241.173 144.357 240.825 143.414 240.515 142.509C239.02 138.146 237.775 133.701 236.786 129.196C236.554 130.224 235.652 131.55 234.789 130.944C234.595 130.781 234.439 130.579 234.329 130.351C232.72 127.624 229.741 125.989 226.73 125.008C223.72 124.027 220.553 123.57 217.576 122.492C215.908 121.888 214.314 121.094 212.827 120.127C212.448 120.684 212.226 121.333 212.186 122.005C212.146 122.678 212.288 123.349 212.599 123.947C213.259 125.116 214.753 125.793 216.032 125.384C216.693 125.173 217.252 124.714 217.908 124.488C218.563 124.261 219.444 124.372 219.731 125.004C220.005 125.609 219.59 126.341 219.796 126.972C220.11 127.934 221.56 128.008 222.068 128.883C222.445 129.535 222.134 130.399 221.595 130.925C221.057 131.45 220.338 131.739 219.68 132.104C217.545 133.291 216.027 135.318 214.162 136.894C212.297 138.47 209.665 139.621 207.442 138.61C207.972 135.927 204.775 133.957 204.187 131.286C203.994 130.406 204.094 129.472 203.818 128.616C203.417 127.375 202.317 126.522 201.414 125.582C200.319 124.429 199.466 123.069 198.905 121.581C198.344 120.094 198.087 118.509 198.148 116.92C198.197 115.816 198.4 114.694 198.149 113.618C197.897 112.542 197.006 111.501 195.902 111.549C193.381 111.661 190.204 111.848 188.881 109.699C188.409 108.932 188.204 107.808 188.886 107.22C189.368 106.806 190.079 106.845 190.711 106.907L196.392 107.466C197.721 107.597 199.157 107.704 200.298 107.01C201.438 106.315 201.932 104.471 200.876 103.654C200.105 103.057 198.723 103.089 198.498 102.14C198.312 101.349 199.187 100.452 198.714 99.7909C198.375 99.3171 197.613 99.4485 197.151 99.8037C196.69 100.159 196.355 100.678 195.838 100.947C194.931 101.419 193.848 100.97 192.873 100.665C191.897 100.36 190.59 100.334 190.117 101.24C189.588 102.253 190.586 103.58 190.061 104.596C189.367 105.938 187.016 105.174 186.041 106.328C184.922 107.653 186.802 109.628 186.425 111.321C185.943 111.559 185.408 111.669 184.871 111.639C184.335 111.609 183.815 111.44 183.363 111.149C182.919 110.846 182.564 110.429 182.338 109.942C182.112 109.454 182.022 108.914 182.078 108.38C182.171 107.618 182.568 106.841 182.302 106.122C182.087 105.54 181.503 105.194 180.96 104.894L175.439 101.843C174.927 102.794 175.575 103.973 176.385 104.687C177.196 105.401 178.211 105.939 178.743 106.879C179.08 107.53 179.155 108.285 178.954 108.99C178.753 109.695 178.29 110.297 177.661 110.672C177.582 110.727 177.492 110.763 177.397 110.78C177.303 110.796 177.206 110.792 177.113 110.768C177.025 110.716 176.948 110.647 176.887 110.565C176.826 110.483 176.783 110.39 176.758 110.29C175.784 107.797 174.322 105.34 171.983 104.037C169.645 102.735 166.285 103.003 164.752 105.197C164.388 105.718 164.144 106.312 163.826 106.862C162.141 109.789 158.527 111.175 155.151 111.084C154.821 111.103 154.492 111.025 154.205 110.862C153.659 110.485 153.684 109.686 153.767 109.028L154.122 106.236C154.193 105.675 154.296 105.056 154.74 104.706C155.365 104.213 156.267 104.524 157.064 104.512C157.667 104.484 158.247 104.271 158.726 103.902C159.204 103.533 159.557 103.026 159.737 102.449C159.898 101.867 159.897 101.252 159.734 100.67C159.571 100.088 159.253 99.562 158.813 99.1479C158.448 98.805 157.958 98.3743 158.151 97.9121C158.228 97.7842 158.332 97.6748 158.456 97.5914C158.579 97.5081 158.72 97.4529 158.867 97.4296C160.298 97.0142 161.81 96.9053 163.217 96.415C164.623 95.9248 165.988 94.9218 166.321 93.4697C166.423 93.0247 166.47 92.4857 166.869 92.265C167.07 92.1804 167.285 92.1363 167.503 92.1356C168.266 92.0271 168.96 91.637 169.45 91.042C169.939 90.4471 170.188 89.6905 170.148 88.9212C170.822 88.4501 171.767 88.7966 172.419 89.2977C173.071 89.7988 173.647 90.4608 174.441 90.6768C175.92 91.0794 177.349 89.7698 178.882 89.7637C179.527 89.7612 180.194 89.9891 180.8 89.7706C181.415 89.549 181.782 88.937 182.254 88.4849C182.726 88.0328 183.554 87.757 183.99 88.2441L183.619 85.4959C184.366 85.6847 185.145 85.7114 185.903 85.5743C186.661 85.4372 187.382 85.1394 188.015 84.701L183.22 83.0808C183.053 83.0391 182.899 82.9567 182.772 82.841C182.423 82.4657 182.77 81.8807 183.053 81.454C183.731 80.4331 183.845 78.7516 182.73 78.2434C181.969 77.8965 181.095 78.3129 180.364 78.7202L176.865 80.6717C176.753 81.3369 177.567 81.7139 178.071 82.1621C178.376 82.4332 178.592 82.7902 178.69 83.1862C178.789 83.5823 178.765 83.9988 178.622 84.3811C178.479 84.7635 178.225 85.0937 177.891 85.3284C177.557 85.5632 177.16 85.6915 176.752 85.6965C176.982 85.9961 177.142 86.3437 177.22 86.7136C177.298 87.0835 177.292 87.4662 177.202 87.8333L174.847 88.0027C174.583 88.0559 174.308 88.0023 174.083 87.8536C173.832 87.6299 173.866 87.238 173.807 86.9063C173.667 86.1056 172.883 85.5444 172.082 85.4005C171.282 85.2566 170.464 85.441 169.671 85.6232C169.335 85.7442 168.965 85.7357 168.635 85.5992C168.445 85.4761 168.301 85.2944 168.225 85.0817C167.878 84.2395 168.202 83.2495 168.76 82.5292C169.318 81.809 170.082 81.2824 170.768 80.6828C172.408 79.2436 173.613 77.3744 174.247 75.2863C175.543 74.7432 176.885 74.0052 178.182 73.4621C180.18 72.4502 182.421 72.016 184.653 72.2082L189.043 72.2921C190.343 72.3169 191.678 72.3487 192.88 72.8442C194.081 73.3397 195.137 74.4114 195.22 75.7088C195.245 75.8556 195.233 76.0064 195.184 76.1471C195.134 76.2877 195.05 76.4135 194.939 76.5127C194.769 76.6053 194.577 76.6486 194.384 76.6378C193.172 76.6804 192.655 76.9824 191.443 77.025Z" fill="#0A1034"/>
    <path d="M156.452 90.7835C156.623 90.6211 156.747 90.4147 156.808 90.1867C156.87 89.9588 156.868 89.7182 156.802 89.4915C156.385 89.3305 155.931 89.2891 155.491 89.3721C155.051 89.4551 154.644 89.6592 154.314 89.9613C154.054 90.2244 153.83 90.5207 153.647 90.8425C153.07 91.7837 152.56 92.9079 152.894 93.9599C152.922 94.0746 152.972 94.1828 153.041 94.2779C153.111 94.3731 153.199 94.4535 153.3 94.5142C153.45 94.5744 153.611 94.5997 153.772 94.5882C154.408 94.5874 155.043 94.5483 155.673 94.4712C156.061 94.4239 156.511 94.3145 156.66 93.9541C156.857 93.4803 156.381 92.9441 156.52 92.4503C156.611 92.2294 156.749 92.0312 156.925 91.8694C157.013 91.7879 157.08 91.6872 157.121 91.5753C157.163 91.4633 157.178 91.3433 157.165 91.2246C157.109 90.9929 156.754 90.8614 156.626 91.0627" fill="#0A1034"/>
    <path d="M159.747 86.5112C159.182 86.3816 158.6 86.345 158.024 86.403C157.897 86.3992 157.77 86.4279 157.657 86.4864C157.547 86.5674 157.468 86.6827 157.431 86.814C157.309 87.2047 157.339 87.6269 157.515 87.9965C157.69 88.3661 157.999 88.656 158.378 88.8085C158.585 88.8561 158.784 88.9357 158.966 89.0446C159.453 89.4227 159.143 90.1954 159.235 90.8052C159.338 91.4899 160.001 92.0646 159.88 92.7464C159.784 93.2835 159.21 93.7088 159.303 94.2465C159.399 94.8097 160.114 94.979 160.684 95.0241C161.014 95.0819 161.354 95.0429 161.662 94.9119C161.971 94.7005 162.191 94.382 162.279 94.0179C162.513 93.3238 162.611 92.5913 162.568 91.8603C162.566 91.5278 162.482 91.2009 162.325 90.9079C162.153 90.6758 161.963 90.4581 161.756 90.2569C160.665 88.9874 161.814 87.0937 159.747 86.5112Z" fill="#0A1034"/>
    <path opacity="0.8" d="M303.263 185.961C303.263 185.961 219.673 137.978 183.687 147.07C183.687 147.07 107.42 155.277 98.5814 173.334C98.5814 173.334 74.3378 97.5723 65.4989 95.0469" stroke="#E0ECF8" stroke-width="2" stroke-miterlimit="10"/>
    <path opacity="0.8" d="M98.5814 173.334C112.597 135.958 238.866 94.5419 238.866 94.5419C220.936 99.0875 183.687 147.07 183.687 147.07C183.687 147.07 104.895 89.7437 65.4989 95.0469C65.4989 95.0469 238.992 100.729 303.263 185.961" stroke="#E0ECF8" stroke-width="2" stroke-miterlimit="10"/>
    <path d="M65.499 98.7087C67.5213 98.7087 69.1608 97.0693 69.1608 95.0469C69.1608 93.0246 67.5213 91.3851 65.499 91.3851C63.4766 91.3851 61.8372 93.0246 61.8372 95.0469C61.8372 97.0693 63.4766 98.7087 65.499 98.7087Z" fill="white"/>
    <path d="M98.5814 176.995C100.604 176.995 102.243 175.356 102.243 173.334C102.243 171.311 100.604 169.672 98.5814 169.672C96.559 169.672 94.9196 171.311 94.9196 173.334C94.9196 175.356 96.559 176.995 98.5814 176.995Z" fill="white"/>
    <path d="M238.866 98.2037C240.889 98.2037 242.528 96.5642 242.528 94.5419C242.528 92.5195 240.889 90.8801 238.866 90.8801C236.844 90.8801 235.204 92.5195 235.204 94.5419C235.204 96.5642 236.844 98.2037 238.866 98.2037Z" fill="white"/>
    <path d="M303.263 189.622C305.286 189.622 306.925 187.983 306.925 185.961C306.925 183.938 305.286 182.299 303.263 182.299C301.241 182.299 299.602 183.938 299.602 185.961C299.602 187.983 301.241 189.622 303.263 189.622Z" fill="white"/>
    <path d="M183.687 150.731C185.709 150.731 187.348 149.092 187.348 147.07C187.348 145.047 185.709 143.408 183.687 143.408C181.664 143.408 180.025 145.047 180.025 147.07C180.025 149.092 181.664 150.731 183.687 150.731Z" fill="white"/>
    <defs>
        <linearGradient id="paint0_linear_1_28" x1="2.00995e-06" y1="-10" x2="333" y2="267" gradientUnits="userSpaceOnUse">
            <stop stop-color="#7C88FF"/>
            <stop offset="1" stop-color="#F2F2F2" stop-opacity="0"/>
        </linearGradient>
    </defs>
</svg>
