<svg width="348" height="497" viewBox="0 0 348 497" fill="none" xmlns="http://www.w3.org/2000/svg">
    <path d="M270.747 163.322C222.798 77.727 124.391 33.033 29.0232 55.7365C-21.395 67.7392 -69.6019 98.4592 -92.3657 166.858C-133.059 289.128 -41.073 341.439 18.7859 361.968C47.7139 371.92 75.1133 385.864 100.191 403.398C145.35 434.905 224.8 467.804 282.062 367.556C323.566 294.897 302.686 220.337 270.747 163.322Z" fill="url(#paint0_linear_1_70)"/>
    <path d="M347.775 352.196C347.775 368.113 272.921 396.353 180.584 396.353C88.2472 396.353 22.1573 339.124 22.1573 323.207C22.1573 307.29 88.2472 338.713 180.584 338.713C272.921 338.713 347.775 336.279 347.775 352.196Z" fill="#1F53E4"/>
    <path opacity="0.1" d="M347.775 352.196C347.775 368.113 272.921 396.353 180.584 396.353C88.2472 396.353 22.1573 339.124 22.1573 323.207C22.1573 307.29 88.2472 338.713 180.584 338.713C272.921 338.713 347.775 336.279 347.775 352.196Z" fill="#0001FC"/>
    <path d="M347.775 352.027C347.775 367.944 272.921 380.848 180.584 380.848C88.2472 380.848 22.1573 339.124 22.1573 323.207C22.1573 307.29 88.2472 323.207 180.584 323.207C272.921 323.207 347.775 336.11 347.775 352.027Z" fill="url(#paint1_linear_1_70)"/>
    <path d="M155.03 307.173L151.645 328.79C151.645 328.79 134.976 337.645 146.696 337.906C158.416 338.166 213.632 337.906 213.632 337.906C213.632 337.906 224.31 337.906 207.381 328.53L203.995 305.87L155.03 307.173Z" fill="url(#paint2_linear_1_70)"/>
    <path opacity="0.1" d="M144.338 337.671C147 335.303 151.645 332.835 151.645 332.835L155.03 311.218L203.995 311.264L207.381 332.575C211.329 334.761 213.774 336.437 215.205 337.723C217.379 337.227 219.755 335.383 207.381 328.53L203.995 305.87L155.03 307.173L151.645 328.79C151.645 328.79 137.638 336.232 144.338 337.671Z" fill="black"/>
    <path d="M281.796 156.503H76.708C72.4244 156.503 68.9518 159.975 68.9518 164.259V302.412C68.9518 306.695 72.4244 310.168 76.708 310.168H281.796C286.08 310.168 289.553 306.695 289.553 302.412V164.259C289.553 159.975 286.08 156.503 281.796 156.503Z" fill="#0A1034"/>
    <path d="M282.13 164.707H76.3746V279.826H282.13V164.707Z" fill="black"/>
    <path d="M179.252 162.363C179.971 162.363 180.555 161.78 180.555 161.061C180.555 160.341 179.971 159.758 179.252 159.758C178.533 159.758 177.95 160.341 177.95 161.061C177.95 161.78 178.533 162.363 179.252 162.363Z" fill="black"/>
    <path d="M289.553 288.941V302.412C289.553 303.43 289.352 304.439 288.962 305.38C288.573 306.321 288.001 307.176 287.281 307.896C286.561 308.617 285.706 309.188 284.765 309.578C283.824 309.968 282.815 310.168 281.796 310.168H76.708C75.6894 310.168 74.6808 309.968 73.7397 309.578C72.7986 309.188 71.9435 308.617 71.2233 307.896C70.503 307.176 69.9317 306.321 69.542 305.38C69.1522 304.439 68.9517 303.43 68.9518 302.412V288.941H289.553Z" fill="url(#paint3_linear_1_70)"/>
    <path d="M236.812 351.97V354.575H96.6898V352.491L96.8826 351.97L100.336 342.594H233.947L236.812 351.97Z" fill="#D7D8E9"/>
    <path d="M290.735 349.42C290.48 350.512 289.516 351.663 287.339 352.751C279.525 356.658 263.638 351.71 263.638 351.71C263.638 351.71 251.397 349.626 251.397 344.157C251.741 343.921 252.099 343.708 252.47 343.518C255.755 341.781 266.647 337.492 285.96 343.7C287.382 344.147 288.653 344.979 289.631 346.106C290.413 347.022 291.027 348.184 290.735 349.42Z" fill="#D7D8E9"/>
    <path opacity="0.1" d="M290.735 349.42C281.171 353.085 272.647 353.358 263.898 347.282C259.486 344.219 255.478 343.461 252.47 343.519C255.755 341.781 266.647 337.492 285.96 343.7C287.382 344.147 288.653 344.98 289.631 346.106C290.413 347.022 291.027 348.184 290.735 349.42Z" fill="black"/>
    <path d="M278.744 347.282C280.614 347.282 282.13 346.816 282.13 346.24C282.13 345.665 280.614 345.198 278.744 345.198C276.874 345.198 275.358 345.665 275.358 346.24C275.358 346.816 276.874 347.282 278.744 347.282Z" fill="white"/>
    <path d="M179.252 304.568C181.985 304.568 184.201 302.353 184.201 299.62C184.201 296.887 181.985 294.671 179.252 294.671C176.519 294.671 174.304 296.887 174.304 299.62C174.304 302.353 176.519 304.568 179.252 304.568Z" fill="#0A1034"/>
    <path opacity="0.1" d="M236.812 351.97V354.575H96.6898V352.491L96.8826 351.97H236.812Z" fill="black"/>
    <defs>
        <linearGradient id="paint0_linear_1_70" x1="-2.50005" y1="52.5" x2="326" y2="339.5" gradientUnits="userSpaceOnUse">
            <stop stop-color="#808BFF"/>
            <stop offset="1" stop-color="#0016FF"/>
        </linearGradient>
        <linearGradient id="paint1_linear_1_70" x1="13.5001" y1="302.5" x2="348" y2="392" gradientUnits="userSpaceOnUse">
            <stop stop-color="#B3B3FF"/>
            <stop offset="1" stop-color="#4D4EFE"/>
        </linearGradient>
        <linearGradient id="paint2_linear_1_70" x1="143" y1="306" x2="217" y2="338" gradientUnits="userSpaceOnUse">
            <stop stop-color="white"/>
            <stop offset="1" stop-color="#9698C5"/>
        </linearGradient>
        <linearGradient id="paint3_linear_1_70" x1="67.4999" y1="286.5" x2="290" y2="310" gradientUnits="userSpaceOnUse">
            <stop stop-color="white"/>
            <stop offset="1" stop-color="#9698C5"/>
        </linearGradient>
    </defs>
</svg>
