<svg width="356" height="410" viewBox="0 0 356 410" fill="none" xmlns="http://www.w3.org/2000/svg">
    <path d="M86.3944 243.434C110.556 338.522 194.042 407.163 292.037 409.916C343.844 411.372 398.359 394.175 438.05 333.999C509.002 226.427 433.69 152.091 381.184 116.768C355.817 99.6689 332.96 79.1081 313.276 55.6816C277.81 13.5603 209.581 -38.7813 128.325 43.23C69.4295 102.672 70.3004 180.095 86.3944 243.434Z" fill="url(#paint0_linear_1_96)"/>
    <path d="M12.2568 228.7L7.53625 214.248L120.582 213.011L125.213 227.32L12.2568 228.7Z" fill="#3F3D56"/>
    <path opacity="0.15" d="M12.2568 228.7L7.53625 214.248L120.582 213.011L125.213 227.32L12.2568 228.7Z" fill="#0A1034"/>
    <path d="M4.72051 228.7L0 214.248L113.045 213.011L117.677 227.32L4.72051 228.7Z" fill="#E0ECF8"/>
    <path d="M197.703 206.492C186.015 206.492 176.803 201.853 170.068 192.574C163.334 183.295 159.966 172.054 159.966 158.852C159.966 145.56 163.223 134.343 169.736 125.199C176.249 116.054 185.437 111.487 197.299 111.496C209.878 111.496 219.355 116.314 225.731 125.949C232.108 135.584 235.297 146.735 235.299 159.403C235.299 171.98 231.999 182.974 225.399 192.385C218.799 201.797 209.567 206.499 197.703 206.492ZM198.045 196.054C205.735 196.054 211.482 192.703 215.287 186C219.091 179.297 220.994 170.847 220.994 160.65C220.994 149.3 219.047 140.006 215.153 132.769C211.259 125.532 205.287 121.912 197.237 121.91C181.936 121.91 174.285 134.064 174.285 158.372C174.285 183.496 182.203 196.056 198.039 196.054H198.045ZM201.896 296.01H184.99L295.665 113.356H312.252L201.896 296.01ZM299.807 297.884C287.943 297.884 278.694 293.202 272.059 283.839C265.425 274.476 262.094 263.234 262.067 250.114C262.067 236.912 265.301 225.738 271.768 216.594C278.236 207.45 287.446 202.883 299.399 202.892C311.889 202.892 321.3 207.709 327.633 217.344C333.966 226.979 337.134 238.13 337.136 250.796C337.136 263.29 333.858 274.263 327.301 283.716C320.744 293.168 311.577 297.891 299.8 297.884H299.807ZM300.006 287.179C307.658 287.179 313.375 283.885 317.154 277.296C320.934 270.708 322.824 262.292 322.824 252.049C322.824 241.087 320.911 231.894 317.086 224.47C313.26 217.045 307.301 213.327 299.207 213.316C283.817 213.316 276.122 225.47 276.122 249.778C276.118 274.714 284.076 287.181 299.999 287.179H300.006Z" fill="#3F3D56"/>
    <path d="M197.703 206.492C186.015 206.492 176.803 201.853 170.068 192.574C163.334 183.295 159.966 172.054 159.966 158.852C159.966 145.56 163.223 134.343 169.736 125.199C176.249 116.054 185.437 111.487 197.299 111.496C209.878 111.496 219.355 116.314 225.731 125.949C232.108 135.584 235.297 146.735 235.299 159.403C235.299 171.98 231.999 182.974 225.399 192.385C218.799 201.797 209.567 206.499 197.703 206.492ZM198.045 196.054C205.735 196.054 211.482 192.703 215.287 186C219.091 179.297 220.994 170.847 220.994 160.65C220.994 149.3 219.047 140.006 215.153 132.769C211.259 125.532 205.287 121.912 197.237 121.91C181.936 121.91 174.285 134.064 174.285 158.372C174.285 183.496 182.203 196.056 198.039 196.054H198.045ZM201.896 296.01H184.99L295.665 113.356H312.252L201.896 296.01ZM299.807 297.884C287.943 297.884 278.694 293.202 272.059 283.839C265.425 274.476 262.094 263.234 262.067 250.114C262.067 236.912 265.301 225.738 271.768 216.594C278.236 207.45 287.446 202.883 299.399 202.892C311.889 202.892 321.3 207.709 327.633 217.344C333.966 226.979 337.134 238.13 337.136 250.796C337.136 263.29 333.858 274.263 327.301 283.716C320.744 293.168 311.577 297.891 299.8 297.884H299.807ZM300.006 287.179C307.658 287.179 313.375 283.885 317.154 277.296C320.934 270.708 322.824 262.292 322.824 252.049C322.824 241.087 320.911 231.894 317.086 224.47C313.26 217.045 307.301 213.327 299.207 213.316C283.817 213.316 276.122 225.47 276.122 249.778C276.118 274.714 284.076 287.181 299.999 287.179H300.006Z" fill="#3F3D56"/>
    <path opacity="0.15" d="M197.703 206.492C186.015 206.492 176.803 201.853 170.068 192.574C163.334 183.295 159.966 172.054 159.966 158.852C159.966 145.56 163.223 134.343 169.736 125.199C176.249 116.054 185.437 111.487 197.299 111.496C209.878 111.496 219.355 116.314 225.731 125.949C232.108 135.584 235.297 146.735 235.299 159.403C235.299 171.98 231.999 182.974 225.399 192.385C218.799 201.797 209.567 206.499 197.703 206.492ZM198.045 196.054C205.735 196.054 211.482 192.703 215.287 186C219.091 179.297 220.994 170.847 220.994 160.65C220.994 149.3 219.047 140.006 215.153 132.769C211.259 125.532 205.287 121.912 197.237 121.91C181.936 121.91 174.285 134.064 174.285 158.372C174.285 183.496 182.203 196.056 198.039 196.054H198.045ZM201.896 296.01H184.99L295.665 113.356H312.252L201.896 296.01ZM299.807 297.884C287.943 297.884 278.694 293.202 272.059 283.839C265.425 274.476 262.094 263.234 262.067 250.114C262.067 236.912 265.301 225.738 271.768 216.594C278.236 207.45 287.446 202.883 299.399 202.892C311.889 202.892 321.3 207.709 327.633 217.344C333.966 226.979 337.134 238.13 337.136 250.796C337.136 263.29 333.858 274.263 327.301 283.716C320.744 293.168 311.577 297.891 299.8 297.884H299.807ZM300.006 287.179C307.658 287.179 313.375 283.885 317.154 277.296C320.934 270.708 322.824 262.292 322.824 252.049C322.824 241.087 320.911 231.894 317.086 224.47C313.26 217.045 307.301 213.327 299.207 213.316C283.817 213.316 276.122 225.47 276.122 249.778C276.118 274.714 284.076 287.181 299.999 287.179H300.006Z" fill="#0A1034"/>
    <path d="M187.083 206.492C175.395 206.492 166.184 201.853 159.449 192.574C152.714 183.295 149.347 172.054 149.347 158.852C149.347 145.56 152.603 134.343 159.117 125.199C165.63 116.054 174.817 111.487 186.679 111.496C199.258 111.496 208.736 116.314 215.112 125.949C221.488 135.584 224.677 146.735 224.68 159.403C224.68 171.98 221.38 182.974 214.78 192.385C208.18 201.797 198.948 206.499 187.083 206.492ZM187.426 196.054C195.115 196.054 200.862 192.703 204.667 186C208.472 179.297 210.374 170.847 210.374 160.65C210.374 149.3 208.427 140.006 204.534 132.769C200.64 125.532 194.668 121.912 186.618 121.91C171.316 121.91 163.666 134.064 163.666 158.372C163.666 183.496 171.584 196.056 187.419 196.054H187.426ZM191.276 296.01H174.371L285.046 113.356H301.633L191.276 296.01ZM289.188 297.884C277.323 297.884 268.074 293.202 261.44 283.839C254.806 274.476 251.475 263.234 251.447 250.114C251.447 236.912 254.681 225.738 261.149 216.594C267.616 207.45 276.827 202.883 288.78 202.892C301.27 202.892 310.681 207.709 317.014 217.344C323.347 226.979 326.514 238.13 326.516 250.796C326.516 263.29 323.238 274.263 316.682 283.716C310.125 293.168 300.958 297.891 289.181 297.884H289.188ZM289.386 287.179C297.039 287.179 302.755 283.885 306.535 277.296C310.314 270.708 312.204 262.292 312.204 252.049C312.204 241.087 310.292 231.894 306.466 224.47C302.641 217.045 296.679 213.327 288.581 213.316C273.191 213.316 265.496 225.47 265.496 249.778C265.496 274.714 273.457 287.181 289.379 287.179H289.386Z" fill="#E0ECF8"/>
    <defs>
        <linearGradient id="paint0_linear_1_96" x1="354.5" y1="426" x2="78.6226" y2="58.9586" gradientUnits="userSpaceOnUse">
            <stop stop-color="#0001FC"/>
            <stop offset="1" stop-color="#808BFF"/>
        </linearGradient>
    </defs>
</svg>
